<svg id="SvgjsSvg1001" width="288" height="288" xmlns="http://www.w3.org/2000/svg" version="1.1" xmlns:xlink="http://www.w3.org/1999/xlink" xmlns:svgjs="http://svgjs.com/svgjs"><defs id="SvgjsDefs1002"></defs><g id="SvgjsG1008" transform="matrix(1,0,0,1,0,0)"><svg xmlns="http://www.w3.org/2000/svg" fill-rule="evenodd" stroke-linecap="round" clip-rule="evenodd" viewBox="0 0 500 820" width="288" height="288"><defs><linearGradient id="a" x1="0" x2="1" y1="0" y2="0" gradientTransform="rotate(-90 478.727 62.272) scale(37.566)" gradientUnits="userSpaceOnUse"><stop offset="0" stop-color="#ffd600" class="stopColor126FC6 svgShape"></stop><stop offset="1" stop-color="#ffd600" class="stopColor4C9CD1 svgShape"></stop></linearGradient><linearGradient id="b" x1="0" x2="1" y1="0" y2="0" gradientTransform="rotate(-90 468.484 54.002) scale(19.053)" gradientUnits="userSpaceOnUse"><stop offset="0" stop-color="#ffb800" class="stopColor2E6C97 svgShape"></stop><stop offset="1" stop-color="#ffb800" class="stopColor3883B7 svgShape"></stop></linearGradient></defs><path fill="url(#a)" stroke="url(#b)" stroke-width="1.1" d="M416.544,503.612C409.971,503.612 404.5,509.303 404.5,515.478C404.5,518.256 406.064,521.786 407.194,524.224L416.5,542.096L425.762,524.224C426.892,521.786 428.5,518.433 428.5,515.478C428.5,509.303 423.117,503.612 416.544,503.612ZM416.544,510.767C419.128,510.784 421.223,512.889 421.223,515.477C421.223,518.065 419.128,520.14 416.544,520.156C413.96,520.139 411.865,518.066 411.865,515.477C411.865,512.889 413.96,510.784 416.544,510.767Z" transform="translate(-7889.1 -9807.44) scale(19.5417)"></path></svg></g></svg>